# xmcd
#
# Track frame offsets: 
#        150
#        15146
#        28448
#        39446
#        49213
#        62683
#        78332
#        85744
#        98540
#        111686
#        127430
#        141217
#        159741
#        173951
#        190653
#        208233
#
# Disc length: 2839 seconds
#
# Revision: 0
# Processed by: cddbd v1.5.2PL0 Copyright (c) Steve Scherf et al.
# Submitted via: ExactAudioCopy v0.99pb5
#
DISCID=e10b1510
DTITLE=Gilles Clément - Blues d'écolier
DYEAR=2011
DGENRE=Blues
TTITLE0=Le petit chat et la souris
TTITLE1=La guitare et le banjo
TTITLE2=Je suis en colère
TTITLE3=Blues d'écolier
TTITLE4=Le blues du bédouin
TTITLE5=A la claire fontaine
TTITLE6=Pauline
TTITLE7=J'attends une petite soeur
TTITLE8=Le blues des écrans
TTITLE9=La fourmi va se marier
TTITLE10=Meunier tu dors
TTITLE11=Je ne veux pas changer d'école
TTITLE12=A sa maman
TTITLE13=Petite fille
TTITLE14=Le blues du réveil
TTITLE15=Dors
EXTD=
EXTT0=
EXTT1=
EXTT2=
EXTT3=
EXTT4=
EXTT5=
EXTT6=
EXTT7=
EXTT8=
EXTT9=
EXTT10=
EXTT11=
EXTT12=
EXTT13=
EXTT14=
EXTT15=
PLAYORDER=
